<?xml version="1.0" encoding="utf-8"?>
<svg width="65" height="39" viewBox="0 0 65 39" fill="none" xmlns="http://www.w3.org/2000/svg">
  <path d="M 63.165 20.809 L 59.002 20.809 C 58.05 20.809 57.217 19.977 57.217 19.024 C 57.217 18.073 58.05 17.24 59.002 17.24 L 62.452 17.24 L 62.452 18.43 L 59.002 18.43 C 58.645 18.43 58.407 18.668 58.407 19.024 C 58.407 19.381 58.645 19.619 59.002 19.619 L 63.165 19.619 L 63.165 20.809 Z" style="fill: rgb(71, 71, 71);"/>
  <path d="M 47.105 25.925 L 22.12 25.925 L 22.12 28.304 L 47.105 28.304 L 47.105 25.925 Z" style="fill: rgb(71, 71, 71);"/>
  <path d="M 60.073 28.304 L 57.811 28.304 L 57.811 25.925 L 60.073 25.925 C 61.262 25.925 62.214 24.973 62.214 23.784 L 62.214 21.166 C 62.214 18.43 60.073 16.288 57.336 16.288 L 28.783 16.288 C 27.117 16.288 25.451 16.407 23.667 16.526 L 4.63 18.668 C 3.322 18.787 2.489 19.858 2.489 21.166 C 2.489 23.903 4.63 26.044 7.367 26.044 L 11.531 26.044 L 11.531 28.423 L 7.367 28.423 C 3.322 28.423 0.11 25.212 0.11 21.166 C 0.11 18.668 2.013 16.645 4.393 16.407 L 23.548 14.266 C 25.332 14.027 27.117 14.027 28.902 14.027 L 57.574 14.027 C 61.62 14.027 64.831 17.24 64.831 21.285 L 64.831 23.903 C 64.712 26.282 62.69 28.304 60.073 28.304 Z" style="fill: rgb(71, 71, 71);"/>
  <path d="M 16.766 33.658 C 13.197 33.658 10.223 30.684 10.223 27.115 C 10.223 23.546 13.197 20.571 16.766 20.571 C 20.335 20.571 23.31 23.546 23.31 27.115 C 23.31 30.684 20.335 33.658 16.766 33.658 Z M 16.766 22.95 C 14.506 22.95 12.602 24.854 12.602 27.115 C 12.602 29.375 14.506 31.279 16.766 31.279 C 19.026 31.279 20.93 29.375 20.93 27.115 C 20.93 24.854 19.026 22.95 16.766 22.95 Z" style="fill: rgb(71, 71, 71);"/>
  <path d="M 52.459 33.658 C 48.889 33.658 45.915 30.684 45.915 27.115 C 45.915 23.546 48.889 20.571 52.459 20.571 C 56.028 20.571 59.002 23.546 59.002 27.115 C 59.002 30.684 56.028 33.658 52.459 33.658 Z M 52.459 22.95 C 50.197 22.95 48.294 24.854 48.294 27.115 C 48.294 29.375 50.197 31.279 52.459 31.279 C 54.719 31.279 56.622 29.375 56.622 27.115 C 56.622 24.854 54.719 22.95 52.459 22.95 Z" style="fill: rgb(71, 71, 71);"/>
  <path d="M 4.988 21.999 L 1.419 21.999 L 1.419 20.809 L 4.988 20.809 C 7.011 20.809 8.557 19.262 8.557 17.24 L 9.746 17.24 C 9.746 19.858 7.605 21.999 4.988 21.999 Z" style="fill: rgb(71, 71, 71);"/>
  <path d="M 32.828 24.378 L 29.258 24.378 C 27.236 24.378 25.332 23.546 23.905 22.118 L 17.717 15.812 C 17.479 15.574 17.479 15.217 17.717 14.979 L 23.071 9.626 C 25.689 6.89 29.496 5.343 33.184 5.343 L 49.127 5.343 C 54.361 5.343 59.239 8.435 61.5 13.076 L 63.88 18.073 C 63.999 18.311 63.88 18.668 63.642 18.905 C 63.403 19.024 63.046 18.905 62.809 18.668 L 60.429 13.67 C 58.407 9.388 53.885 6.651 49.127 6.651 L 46.271 6.651 C 46.271 6.77 46.271 6.77 46.271 6.89 L 39.49 20.452 C 38.3 22.831 35.682 24.378 32.828 24.378 Z M 19.145 15.455 L 24.856 21.285 C 26.046 22.475 27.712 23.188 29.377 23.188 L 32.947 23.188 C 35.326 23.188 37.467 21.88 38.538 19.739 L 45.081 6.532 L 33.303 6.532 C 29.853 6.532 26.403 7.96 24.023 10.458 L 19.145 15.455 Z" style="fill: rgb(71, 71, 71);"/>
</svg>