<?xml version="1.0" encoding="utf-8"?>
<svg width="65" height="39" viewBox="0 0 65 39" fill="none" xmlns="http://www.w3.org/2000/svg">
  <path d="M 63.484 26.157 L 59.783 26.157 C 58.937 26.157 58.197 25.416 58.197 24.571 C 58.197 23.725 58.937 22.985 59.783 22.985 L 62.85 22.985 L 62.85 24.042 L 59.783 24.042 C 59.465 24.042 59.254 24.253 59.254 24.571 C 59.254 24.888 59.465 25.1 59.783 25.1 L 63.484 25.1 L 63.484 26.157 Z" style="fill: rgb(71, 71, 71);"/>
  <path d="M 6.486 25.1 L 3.314 25.1 L 3.314 24.042 L 6.486 24.042 C 8.284 24.042 9.658 22.667 9.658 20.87 L 10.716 20.87 C 10.716 23.196 8.813 25.1 6.486 25.1 Z" style="fill: rgb(71, 71, 71);"/>
  <path d="M 61.369 31.973 L 56.293 31.973 L 56.293 29.859 L 61.369 29.859 C 62.004 29.859 62.427 29.435 62.427 28.801 L 62.427 21.504 L 9.765 21.504 C 5.746 21.504 2.468 24.782 2.468 28.801 C 2.468 29.435 2.891 29.859 3.525 29.859 L 11.985 29.859 L 11.985 31.973 L 3.525 31.973 C 1.728 31.973 0.353 30.598 0.353 28.801 C 0.353 23.619 4.583 19.389 9.765 19.389 L 62.849 19.389 C 63.801 19.389 64.647 20.129 64.647 21.187 L 64.647 28.907 C 64.542 30.598 63.167 31.973 61.369 31.973 Z" style="fill: rgb(71, 71, 71);"/>
  <path d="M 46.776 29.859 L 21.397 29.859 L 21.397 31.973 L 46.776 31.973 L 46.776 29.859 Z" style="fill: rgb(71, 71, 71);"/>
  <path d="M 16.638 36.732 C 13.466 36.732 10.822 34.088 10.822 30.916 C 10.822 27.744 13.466 25.1 16.638 25.1 C 19.811 25.1 22.455 27.744 22.455 30.916 C 22.455 34.088 19.811 36.732 16.638 36.732 Z M 16.638 27.215 C 14.629 27.215 12.937 28.907 12.937 30.916 C 12.937 32.925 14.629 34.617 16.638 34.617 C 18.647 34.617 20.34 32.925 20.34 30.916 C 20.34 28.907 18.647 27.215 16.638 27.215 Z" style="fill: rgb(71, 71, 71);"/>
  <path d="M 51.534 36.732 C 48.362 36.732 45.718 34.088 45.718 30.916 C 45.718 27.744 48.362 25.1 51.534 25.1 C 54.707 25.1 57.351 27.744 57.351 30.916 C 57.351 34.088 54.707 36.732 51.534 36.732 Z M 51.534 27.215 C 49.525 27.215 47.833 28.907 47.833 30.916 C 47.833 32.925 49.525 34.617 51.534 34.617 C 53.544 34.617 55.236 32.925 55.236 30.916 C 55.236 28.907 53.544 27.215 51.534 27.215 Z" style="fill: rgb(71, 71, 71);"/>
  <path d="M 63.801 21.399 L 9.447 21.399 C 9.236 21.399 9.024 21.292 8.918 21.081 C 8.813 20.87 8.813 20.658 9.024 20.447 L 11.033 17.803 C 17.378 9.343 27.53 4.268 38.105 4.268 L 56.082 4.268 C 60.734 4.268 64.435 8.075 64.435 12.621 L 64.435 20.763 C 64.435 21.187 64.119 21.399 63.801 21.399 Z M 10.61 20.236 L 63.272 20.236 L 63.272 12.621 C 63.272 8.709 59.994 5.431 56.082 5.431 L 38.105 5.431 C 27.848 5.431 18.118 10.295 11.985 18.543 L 10.61 20.236 Z" style="fill: rgb(71, 71, 71);"/>
  <path d="M 35.038 28.483 L 28.376 28.483 C 26.049 28.483 23.829 27.637 22.137 26.157 L 16.744 21.504 C 16.533 21.293 16.533 20.975 16.638 20.764 C 16.85 20.552 17.167 20.552 17.378 20.658 L 22.771 25.311 C 24.357 26.686 26.261 27.426 28.376 27.426 L 34.509 27.426 L 34.509 5.219 C 34.509 4.902 34.721 4.69 35.038 4.69 C 35.355 4.69 35.567 4.902 35.567 5.219 L 35.567 27.955 C 35.567 28.272 35.355 28.483 35.038 28.483 Z" style="fill: rgb(71, 71, 71);"/>
  <path d="M 63.061 17.909 L 55.553 17.909 C 50.9 17.909 47.199 14.102 47.199 9.555 L 47.199 5.219 C 47.199 4.902 47.41 4.69 47.728 4.69 C 48.044 4.69 48.256 4.902 48.256 5.219 L 48.256 9.555 C 48.256 13.573 51.534 16.851 55.553 16.851 L 63.061 16.851 C 63.378 16.851 63.59 17.063 63.59 17.38 C 63.59 17.697 63.378 17.909 63.061 17.909 Z" style="fill: rgb(71, 71, 71);"/>
  <path d="M 39.585 28.483 L 34.509 28.483 C 34.191 28.483 33.98 28.272 33.98 27.955 C 33.98 27.637 34.191 27.426 34.509 27.426 L 39.585 27.426 C 42.017 27.426 44.026 25.416 44.026 22.985 L 44.026 5.219 C 44.026 4.902 44.238 4.69 44.555 4.69 C 44.872 4.69 45.084 4.902 45.084 5.219 L 45.084 22.985 C 45.084 26.052 42.651 28.483 39.585 28.483 Z" style="fill: rgb(71, 71, 71);"/>
</svg>