<?xml version="1.0" encoding="utf-8"?>
<svg width="65px" height="39" viewBox="0 0 65 39" fill="none" xmlns="http://www.w3.org/2000/svg">
  <path d="M 32.5 3.5 C 23.7 3.5 16.5 10.7 16.5 19.5 C 16.5 28.3 23.7 35.5 32.5 35.5 C 41.3 35.5 48.5 28.3 48.5 19.5 C 48.5 10.7 41.3 3.5 32.5 3.5 Z M 19.4 14.5 C 21.4 9.2 26.5 5.5 32.5 5.5 C 38.5 5.5 43.6 9.3 45.6 14.5 C 46.2 16.1 44.8 17.8 43.1 17.3 L 39.9 16.5 L 39.8 16.5 L 39.6 16.5 C 34.9 15.3 30 15.3 25.4 16.5 L 25.2 16.5 L 25.1 16.6 L 21.9 17.4 C 20.2 17.8 18.8 16.1 19.4 14.5 Z M 31.4 30.9 C 31.4 32.3 30.1 33.3 28.7 32.9 C 23.7 31.5 19.8 27.4 18.8 22.2 C 18.6 21.1 19.3 20 20.4 19.7 C 23 19.1 25.7 19.8 27.5 21.7 L 29.3 23.5 C 30.7 24.9 31.4 26.8 31.4 28.8 L 31.4 30.9 Z M 30.8 19.8 C 30.8 18.8 31.6 18 32.6 18 C 33.6 18 34.4 18.8 34.4 19.8 C 34.4 20.8 33.6 21.6 32.6 21.6 C 31.6 21.6 30.8 20.8 30.8 19.8 Z M 36.2 33 C 34.8 33.4 33.4 32.4 33.4 31 L 33.4 29 C 33.4 27 34.2 25.1 35.6 23.7 L 37.4 21.9 C 39.3 20 42 19.3 44.6 19.9 C 45.7 20.2 46.4 21.3 46.2 22.4 C 45.1 27.5 41.2 31.6 36.2 33 Z" style="fill: rgb(71, 71, 71);"/>
</svg>