<?xml version="1.0" encoding="utf-8"?>
<svg width="65" height="39" viewBox="0 0 65 39" fill="none" xmlns="http://www.w3.org/2000/svg">
  <path d="M 63.43 24.45 L 59.601 24.45 C 58.726 24.45 57.96 23.684 57.96 22.809 C 57.96 21.934 58.726 21.167 59.601 21.167 L 62.774 21.167 L 62.774 22.262 L 59.601 22.262 C 59.273 22.262 59.054 22.481 59.054 22.809 C 59.054 23.137 59.273 23.356 59.601 23.356 L 63.43 23.356 L 63.43 24.45 Z" style="fill: rgb(71, 71, 71);"/>
  <path d="M 4.459 24.231 L 1.176 24.231 L 1.176 23.137 L 4.459 23.137 C 6.319 23.137 7.741 21.714 7.741 19.855 L 8.836 19.855 C 8.836 22.262 6.866 24.231 4.459 24.231 Z" style="fill: rgb(71, 71, 71);"/>
  <path d="M 61.243 31.343 L 55.772 31.343 L 55.772 29.154 L 61.243 29.154 C 61.899 29.154 62.337 28.717 62.337 28.06 L 62.337 20.511 L 5.882 20.511 C 4.021 20.511 2.381 22.043 2.381 24.013 L 2.381 28.169 C 2.381 28.826 2.818 29.264 3.475 29.264 L 9.82 29.264 L 9.82 31.452 L 3.584 31.452 C 1.724 31.452 0.302 30.029 0.302 28.169 L 0.302 24.013 C 0.302 20.949 2.818 18.323 5.99 18.323 L 62.447 18.323 C 63.65 18.323 64.634 19.307 64.634 20.511 L 64.634 28.06 C 64.525 29.921 63.102 31.343 61.243 31.343 Z" style="fill: rgb(71, 71, 71);"/>
  <path d="M 45.925 29.154 L 19.667 29.154 L 19.667 31.343 L 45.925 31.343 L 45.925 29.154 Z" style="fill: rgb(71, 71, 71);"/>
  <path d="M 14.744 36.266 C 11.461 36.266 8.726 33.53 8.726 30.249 C 8.726 26.967 11.461 24.231 14.744 24.231 C 18.025 24.231 20.761 26.967 20.761 30.249 C 20.761 33.53 18.025 36.266 14.744 36.266 Z M 14.744 26.419 C 12.665 26.419 10.914 28.17 10.914 30.249 C 10.914 32.328 12.665 34.078 14.744 34.078 C 16.822 34.078 18.573 32.328 18.573 30.249 C 18.573 28.17 16.822 26.419 14.744 26.419 Z" style="fill: rgb(71, 71, 71);"/>
  <path d="M 50.848 36.266 C 47.567 36.266 44.831 33.53 44.831 30.249 C 44.831 26.967 47.567 24.231 50.848 24.231 C 54.13 24.231 56.866 26.967 56.866 30.249 C 56.866 33.53 54.13 36.266 50.848 36.266 Z M 50.848 26.419 C 48.769 26.419 47.019 28.17 47.019 30.249 C 47.019 32.328 48.769 34.078 50.848 34.078 C 52.927 34.078 54.678 32.328 54.678 30.249 C 54.678 28.17 52.927 26.419 50.848 26.419 Z" style="fill: rgb(71, 71, 71);"/>
  <path d="M 36.297 19.527 L 15.071 19.527 C 14.853 19.527 14.634 19.417 14.634 19.198 C 14.634 18.98 14.524 18.76 14.634 18.651 L 15.181 17.776 C 19.229 11.649 26.012 7.929 33.343 7.929 L 34.327 7.929 C 35.749 7.929 36.844 9.023 36.844 10.445 L 36.844 18.98 C 36.844 19.307 36.516 19.527 36.297 19.527 Z M 16.056 18.432 L 35.749 18.432 L 35.749 10.445 C 35.749 9.68 35.094 9.023 34.327 9.023 L 33.343 9.023 C 26.34 9.023 19.885 12.524 16.056 18.432 Z" style="fill: rgb(71, 71, 71);"/>
  <path d="M 27.982 27.732 L 25.247 27.732 C 23.934 27.732 22.839 27.295 21.855 26.31 L 14.853 19.198 C 14.634 18.98 14.634 18.651 14.853 18.432 C 15.072 18.213 15.401 18.213 15.619 18.432 L 22.731 25.544 C 23.387 26.2 24.371 26.638 25.247 26.638 L 27.982 26.638 C 29.733 26.638 31.264 25.216 31.264 23.356 L 31.264 9.133 C 31.264 8.804 31.483 8.586 31.811 8.586 C 32.14 8.586 32.358 8.804 32.358 9.133 L 32.358 23.356 C 32.358 25.763 30.389 27.732 27.982 27.732 Z" style="fill: rgb(71, 71, 71);"/>
  <path d="M 63.212 23.903 C 62.884 23.903 62.665 23.684 62.665 23.356 L 62.665 17.338 C 62.665 16.463 61.899 15.697 61.023 15.697 L 36.407 15.697 C 36.079 15.697 35.859 15.478 35.859 15.151 C 35.859 14.822 36.079 14.603 36.407 14.603 L 61.023 14.603 C 62.555 14.603 63.759 15.806 63.759 17.338 L 63.759 23.356 C 63.759 23.684 63.43 23.903 63.212 23.903 Z" style="fill: rgb(71, 71, 71);"/>
</svg>