<?xml version="1.0" encoding="utf-8"?>
<svg width="65" height="39" viewBox="0 0 65 39" fill="none" xmlns="http://www.w3.org/2000/svg">
  <path d="M 63.428 20.662 L 59.733 20.662 C 58.889 20.662 58.15 19.923 58.15 19.078 C 58.15 18.234 58.889 17.494 59.733 17.494 L 62.795 17.494 L 62.795 18.55 L 59.733 18.55 C 59.417 18.55 59.206 18.761 59.206 19.078 C 59.206 19.394 59.417 19.605 59.733 19.605 L 63.428 19.605 L 63.428 20.662 Z" style="fill: rgb(71, 71, 71);"/>
  <path d="M 6.532 20.451 L 3.366 20.451 L 3.366 19.394 L 6.532 19.394 C 8.327 19.394 9.699 18.023 9.699 16.228 L 10.755 16.228 C 10.755 18.55 8.855 20.451 6.532 20.451 Z" style="fill: rgb(71, 71, 71);"/>
  <path d="M 61.317 27.311 L 56.04 27.311 L 56.04 25.2 L 61.317 25.2 C 61.951 25.2 62.373 24.778 62.373 24.145 L 62.373 19.605 C 62.373 18.023 61.106 16.861 59.629 16.861 L 9.172 16.861 C 5.477 16.861 2.416 19.816 2.416 23.617 L 2.416 24.251 C 2.416 24.884 2.839 25.306 3.472 25.306 L 11.705 25.306 L 11.705 27.417 L 3.577 27.417 C 1.783 27.417 0.41 26.045 0.41 24.251 L 0.41 23.617 C 0.41 18.761 4.316 14.75 9.277 14.75 L 59.734 14.75 C 62.478 14.75 64.589 16.967 64.589 19.605 L 64.589 24.145 C 64.484 25.94 63.111 27.311 61.317 27.311 Z" style="fill: rgb(71, 71, 71);"/>
  <path d="M 46.539 25.201 L 21.205 25.201 L 21.205 27.312 L 46.539 27.312 L 46.539 25.201 Z" style="fill: rgb(71, 71, 71);"/>
  <path d="M 16.455 32.062 C 13.288 32.062 10.649 29.423 10.649 26.256 C 10.649 23.089 13.288 20.451 16.455 20.451 C 19.621 20.451 22.261 23.089 22.261 26.256 C 22.261 29.423 19.621 32.062 16.455 32.062 Z M 16.455 22.562 C 14.449 22.562 12.761 24.251 12.761 26.256 C 12.761 28.262 14.449 29.951 16.455 29.951 C 18.461 29.951 20.149 28.262 20.149 26.256 C 20.149 24.251 18.461 22.562 16.455 22.562 Z" style="fill: rgb(71, 71, 71);"/>
  <path d="M 51.289 32.062 C 48.122 32.062 45.484 29.423 45.484 26.256 C 45.484 23.089 48.122 20.451 51.289 20.451 C 54.456 20.451 57.095 23.089 57.095 26.256 C 57.095 29.423 54.456 32.062 51.289 32.062 Z M 51.289 22.562 C 49.284 22.562 47.595 24.251 47.595 26.256 C 47.595 28.262 49.284 29.951 51.289 29.951 C 53.295 29.951 54.984 28.262 54.984 26.256 C 54.984 24.251 53.295 22.562 51.289 22.562 Z" style="fill: rgb(71, 71, 71);"/>
  <path d="M 60.895 16.439 C 57.728 16.439 54.773 14.75 53.189 11.9 C 51.817 9.472 49.284 7.994 46.433 7.994 L 30.916 7.994 C 28.489 7.994 26.272 9.05 24.794 10.95 L 23.211 13.061 C 21.521 15.172 18.988 16.439 16.244 16.439 L 8.116 16.439 C 7.799 16.439 7.588 16.228 7.588 15.912 C 7.588 15.594 7.799 15.383 8.116 15.383 L 16.244 15.383 C 18.672 15.383 20.888 14.328 22.366 12.428 L 23.95 10.317 C 25.638 8.205 28.172 6.939 30.916 6.939 L 46.539 6.939 C 49.706 6.939 52.662 8.628 54.245 11.478 C 55.617 13.905 58.256 15.383 61 15.383 C 61.317 15.383 61.528 15.594 61.528 15.912 C 61.528 16.228 61.211 16.439 60.895 16.439 Z" style="fill: rgb(71, 71, 71);"/>
  <path d="M 39.256 23.829 L 29.227 23.829 C 26.378 23.829 23.844 22.245 22.472 19.816 L 19.938 15.067 C 19.832 14.856 19.938 14.539 20.149 14.328 C 20.361 14.223 20.677 14.328 20.888 14.539 L 23.422 19.289 C 24.583 21.4 26.8 22.773 29.227 22.773 L 39.256 22.773 C 42.105 22.773 44.744 20.873 45.589 18.128 L 48.862 7.783 C 48.967 7.467 49.284 7.361 49.495 7.467 C 49.811 7.572 49.917 7.889 49.811 8.1 L 46.539 18.445 C 45.589 21.717 42.633 23.829 39.256 23.829 Z" style="fill: rgb(71, 71, 71);"/>
  <path d="M 37.145 23.3 C 36.827 23.3 36.616 23.089 36.616 22.773 L 36.616 7.994 C 36.616 7.678 36.827 7.467 37.145 7.467 C 37.461 7.467 37.672 7.678 37.672 7.994 L 37.672 22.773 C 37.672 23.089 37.461 23.3 37.145 23.3 Z" style="fill: rgb(71, 71, 71);"/>
</svg>