<?xml version="1.0" encoding="utf-8"?>
<svg width="65" height="39" viewBox="0 0 65 39" fill="none" xmlns="http://www.w3.org/2000/svg">
  <path d="M 44.306 25.383 L 20.999 25.383 L 20.999 27.602 L 44.306 27.602 L 44.306 25.383 Z" style="fill: rgb(71, 71, 71);"/>
  <path d="M 56.958 27.603 L 54.294 27.603 L 54.294 25.383 L 56.958 25.383 C 57.623 25.383 58.067 24.939 58.067 24.273 L 58.067 16.615 L 6.128 16.615 C 4.24 16.615 2.576 18.169 2.576 20.166 L 2.576 24.383 C 2.576 25.05 3.02 25.494 3.686 25.494 L 11.011 25.494 L 11.011 27.713 L 3.686 27.713 C 1.799 27.713 0.357 26.271 0.357 24.383 L 0.357 20.166 C 0.357 17.059 2.908 14.395 6.128 14.395 L 58.067 14.395 C 59.288 14.395 60.287 15.394 60.287 16.615 L 60.287 24.273 C 60.287 26.159 58.733 27.603 56.958 27.603 Z" style="fill: rgb(71, 71, 71);"/>
  <path d="M 58.125 22.868 L 58.125 21.545 L 59.221 21.545 L 59.221 22.868 C 59.221 23.199 59.44 23.42 59.769 23.42 L 63.549 23.42 L 63.549 14.159 C 63.549 13.222 62.782 12.395 61.796 12.395 L 59.714 12.395 C 59.385 12.395 59.167 12.615 59.167 12.946 L 59.167 16.584 L 58.07 16.584 L 58.07 12.946 C 58.07 12.008 58.782 11.292 59.714 11.292 L 61.796 11.292 C 63.329 11.292 64.644 12.56 64.644 14.159 L 64.644 23.42 C 64.644 24.027 64.151 24.523 63.549 24.523 L 59.769 24.523 C 58.838 24.523 58.125 23.751 58.125 22.868 Z" style="fill: rgb(71, 71, 71);"/>
  <path d="M 59.288 20.721 L 55.404 20.721 C 54.516 20.721 53.739 19.944 53.739 19.056 C 53.739 18.168 54.516 17.392 55.404 17.392 L 58.623 17.392 L 58.623 18.501 L 55.404 18.501 C 55.071 18.501 54.849 18.724 54.849 19.056 C 54.849 19.389 55.071 19.612 55.404 19.612 L 59.288 19.612 L 59.288 20.721 Z" style="fill: rgb(71, 71, 71);"/>
  <path d="M 16.005 32.707 C 12.675 32.707 9.901 29.933 9.901 26.603 C 9.901 23.274 12.675 20.5 16.005 20.5 C 19.334 20.5 22.109 23.274 22.109 26.603 C 22.109 29.933 19.334 32.707 16.005 32.707 Z M 16.005 22.719 C 13.896 22.719 12.121 24.495 12.121 26.603 C 12.121 28.712 13.896 30.488 16.005 30.488 C 18.113 30.488 19.889 28.712 19.889 26.603 C 19.889 24.495 18.113 22.719 16.005 22.719 Z" style="fill: rgb(71, 71, 71);"/>
  <path d="M 49.3 32.707 C 45.971 32.707 43.195 29.933 43.195 26.603 C 43.195 23.274 45.971 20.5 49.3 20.5 C 52.629 20.5 55.404 23.274 55.404 26.603 C 55.404 29.933 52.629 32.707 49.3 32.707 Z M 49.3 22.719 C 47.191 22.719 45.415 24.495 45.415 26.603 C 45.415 28.712 47.191 30.488 49.3 30.488 C 51.409 30.488 53.185 28.712 53.185 26.603 C 53.185 24.495 51.409 22.719 49.3 22.719 Z" style="fill: rgb(71, 71, 71);"/>
  <path d="M 5.017 20.5 L 1.688 20.5 L 1.688 19.389 L 5.017 19.389 C 6.905 19.389 8.348 17.947 8.348 16.06 L 9.457 16.06 C 9.457 18.501 7.46 20.5 5.017 20.5 Z" style="fill: rgb(71, 71, 71);"/>
  <path d="M 38.868 24.051 L 27.769 24.051 C 25.883 24.051 24.107 23.274 22.775 21.942 L 17.004 16.06 C 16.782 15.838 16.782 15.504 17.004 15.283 L 21.998 10.289 C 24.44 7.736 27.88 6.294 31.431 6.294 L 50.298 6.294 C 52.962 6.294 55.404 7.847 56.514 10.289 L 60.065 18.168 C 60.176 18.501 60.065 18.724 59.732 18.945 C 59.399 19.056 59.177 18.945 58.956 18.612 L 55.515 10.733 C 54.627 8.735 52.518 7.403 50.298 7.403 L 49.411 7.403 L 49.411 7.515 L 43.418 21.054 C 42.641 22.83 40.865 24.051 38.868 24.051 Z M 18.225 15.727 L 23.552 21.165 C 24.662 22.275 26.216 22.941 27.769 22.941 L 38.868 22.941 C 40.421 22.941 41.753 22.053 42.419 20.61 L 48.301 7.403 L 31.431 7.403 C 28.213 7.403 24.995 8.735 22.775 11.066 L 18.225 15.727 Z" style="fill: rgb(71, 71, 71);"/>
  <path d="M 33.318 23.495 C 32.986 23.495 32.763 23.274 32.763 22.941 L 32.763 7.403 C 32.763 7.071 32.986 6.848 33.318 6.848 C 33.651 6.848 33.874 7.071 33.874 7.403 L 33.874 22.941 C 33.874 23.274 33.651 23.495 33.318 23.495 Z" style="fill: rgb(71, 71, 71);"/>
</svg>