<?xml version="1.0" encoding="utf-8"?>
<svg width="65" height="39" viewBox="0 0 65 39" fill="none" xmlns="http://www.w3.org/2000/svg">
  <path d="M 63.342 21.658 L 59.658 21.658 C 58.816 21.658 58.079 20.921 58.079 20.079 C 58.079 19.237 58.816 18.5 59.658 18.5 L 62.71 18.5 L 62.71 19.553 L 59.658 19.553 C 59.342 19.553 59.131 19.763 59.131 20.079 C 59.131 20.395 59.342 20.605 59.658 20.605 L 63.342 20.605 L 63.342 21.658 Z" style="fill: rgb(71, 71, 71);"/>
  <path d="M 6.605 21.448 L 3.447 21.448 L 3.447 20.395 L 6.605 20.395 C 8.394 20.395 9.763 19.027 9.763 17.237 L 10.816 17.237 C 10.816 19.553 8.921 21.448 6.605 21.448 Z" style="fill: rgb(71, 71, 71);"/>
  <path d="M 61.237 28.288 L 55.974 28.288 L 55.974 26.184 L 61.237 26.184 C 61.869 26.184 62.289 25.762 62.289 25.131 L 62.289 20.604 C 62.289 19.026 61.027 17.868 59.553 17.868 L 9.237 17.868 C 5.553 17.868 2.5 20.815 2.5 24.605 L 2.5 25.236 C 2.5 25.868 2.921 26.289 3.553 26.289 L 11.763 26.289 L 11.763 28.394 L 3.658 28.394 C 1.868 28.394 0.5 27.026 0.5 25.236 L 0.5 24.605 C 0.5 19.762 4.395 15.763 9.342 15.763 L 59.658 15.763 C 62.395 15.763 64.5 17.973 64.5 20.604 L 64.5 25.131 C 64.394 26.92 63.026 28.288 61.237 28.288 Z" style="fill: rgb(71, 71, 71);"/>
  <path d="M 46.5 26.185 L 21.237 26.185 L 21.237 28.289 L 46.5 28.289 L 46.5 26.185 Z" style="fill: rgb(71, 71, 71);"/>
  <path d="M 16.5 33.026 C 13.342 33.026 10.711 30.395 10.711 27.237 C 10.711 24.08 13.342 21.448 16.5 21.448 C 19.658 21.448 22.289 24.08 22.289 27.237 C 22.289 30.395 19.658 33.026 16.5 33.026 Z M 16.5 23.553 C 14.5 23.553 12.815 25.237 12.815 27.237 C 12.815 29.237 14.5 30.922 16.5 30.922 C 18.5 30.922 20.185 29.237 20.185 27.237 C 20.185 25.237 18.5 23.553 16.5 23.553 Z" style="fill: rgb(71, 71, 71);"/>
  <path d="M 51.237 33.026 C 48.079 33.026 45.447 30.395 45.447 27.237 C 45.447 24.08 48.079 21.448 51.237 21.448 C 54.395 21.448 57.026 24.08 57.026 27.237 C 57.026 30.395 54.395 33.026 51.237 33.026 Z M 51.237 23.553 C 49.237 23.553 47.552 25.237 47.552 27.237 C 47.552 29.237 49.237 30.922 51.237 30.922 C 53.237 30.922 54.921 29.237 54.921 27.237 C 54.921 25.237 53.237 23.553 51.237 23.553 Z" style="fill: rgb(71, 71, 71);"/>
  <path d="M 61.763 17.448 C 61.553 17.448 61.447 17.342 61.342 17.237 C 57.552 12.079 51.342 9.026 44.921 9.026 L 34.605 9.026 C 30.5 9.026 26.816 10.816 24.29 14.079 C 22.605 16.184 20.079 17.448 17.342 17.448 L 9.237 17.448 C 8.921 17.448 8.71 17.237 8.71 16.922 C 8.71 16.606 8.921 16.395 9.237 16.395 L 17.342 16.395 C 19.763 16.395 21.974 15.342 23.448 13.448 C 26.079 9.974 30.184 7.974 34.605 7.974 L 44.921 7.974 C 51.658 7.974 58.184 11.237 62.184 16.606 C 62.395 16.816 62.289 17.132 62.079 17.342 C 61.974 17.448 61.869 17.448 61.763 17.448 Z" style="fill: rgb(71, 71, 71);"/>
  <path d="M 40.29 24.816 L 30.289 24.816 C 27.447 24.816 24.921 23.237 23.552 20.816 L 21.027 16.08 C 20.921 15.868 21.027 15.553 21.237 15.342 C 21.447 15.237 21.763 15.342 21.974 15.553 L 24.5 20.289 C 25.658 22.395 27.869 23.764 30.289 23.764 L 40.29 23.764 C 43.131 23.764 45.763 21.869 46.605 19.132 L 50.29 9.132 C 50.395 8.816 50.711 8.711 50.921 8.816 C 51.237 8.922 51.342 9.237 51.237 9.448 L 47.658 19.553 C 46.605 22.711 43.658 24.816 40.29 24.816 Z" style="fill: rgb(71, 71, 71);"/>
  <path d="M 36.079 24.29 C 35.763 24.29 35.553 24.08 35.553 23.764 L 35.553 9.026 C 35.553 8.711 35.763 8.5 36.079 8.5 C 36.395 8.5 36.605 8.711 36.605 9.026 L 36.605 23.764 C 36.605 24.08 36.395 24.29 36.079 24.29 Z" style="fill: rgb(71, 71, 71);"/>
</svg>